<?xml version="1.0" encoding="utf-8"?>
<!-- Svg Vector Icons : http://www.onlinewebfonts.com/icon -->
<!DOCTYPE svg PUBLIC "-//W3C//DTD SVG 1.1//EN" "http://www.w3.org/Graphics/SVG/1.1/DTD/svg11.dtd">
<svg version="1.1" xmlns="http://www.w3.org/2000/svg" xmlns:xlink="http://www.w3.org/1999/xlink" x="0px" y="0px" viewBox="0 0 1000 1000" enable-background="new 0 0 1000 1000" xml:space="preserve">
<metadata> Svg Vector Icons : http://www.onlinewebfonts.com/icon </metadata>
<g><path d="M800.1,608.6c25.3,92.8,108.1,152.7,86.2,153.6c-21.8,0.9-156.4-34.2-245.4-106.6c-0.8,0.1-1.6,0.1-2.5,0.2c-29.6-127.7-170-221.8-344-221.8c-39.1,0-76.4,4.9-111.2,13.7c-15.6-33.6-24.5-69.6-24.5-107.3c0-176.5,186.1-319.6,415.7-319.6C803.9,20.9,990,164,990,340.5C990,452.9,914.3,551.6,800.1,608.6z M578.8,706.2c0,114.2-127.3,206.8-284.4,206.8c-15.5,0-30.7-1.2-45.5-2.9c-60.9,46.8-153,69.6-167.9,69c-14.9-0.6,41.7-39.4,59-99.4C61.8,842.8,10,779,10,706.2C10,592,137.3,499.4,294.4,499.4C451.5,499.4,578.8,592,578.8,706.2z"/></g>
</svg>