<?xml version="1.0" encoding="utf-8"?>
<!-- Svg Vector Icons : http://www.onlinewebfonts.com/icon -->
<!DOCTYPE svg PUBLIC "-//W3C//DTD SVG 1.1//EN" "http://www.w3.org/Graphics/SVG/1.1/DTD/svg11.dtd">
<svg version="1.1" xmlns="http://www.w3.org/2000/svg" xmlns:xlink="http://www.w3.org/1999/xlink" x="0px" y="0px" viewBox="0 0 1000 1000" enable-background="new 0 0 1000 1000" xml:space="preserve">
<metadata> Svg Vector Icons : http://www.onlinewebfonts.com/icon </metadata>
<g><path d="M166.8,29.6V206H10v568.4c0,108.3,87.7,196.1,196,196.1h588c108.2,0,196-87.8,196-196.1V29.6H166.8z M166.8,715.6c0,49.6-18.7,94.8-49.1,129.2c-30.3-34.5-48.9-79.7-48.9-129.2V264.8h98V715.6z M931.2,715.6c0,108.2-87.8,196-196.1,196H264.8c-28.7,0-55.9-6.3-80.4-17.4c25.7-33.2,41.2-74.6,41.2-119.8v-686h705.6V715.6z M500,656.8H304v58.8h196V656.8z M500,558.8H304v58.8h196V558.8z M500,460.8H304v58.8h196V460.8z M833.2,206H304v78.4h529.2V206z M500,362.8H304v58.8h196V362.8z M558.8,715.6h274.4V362.8H558.8V715.6z"/></g>
</svg>